<svg width="45" height="32" viewBox="0 0 45 32" fill="none" xmlns="http://www.w3.org/2000/svg">
<rect x="0.141602" width="44" height="32" rx="2" fill="white"/>
<path fill-rule="evenodd" clip-rule="evenodd" d="M20.8972 25.225H24.1619C29.258 25.225 33.319 21.1841 33.4783 16.1923V16.1131C33.3986 11.0421 29.258 6.92189 24.1619 7.00112H20.499C15.6418 7.15959 11.8197 11.2798 11.9789 16.1923C11.9789 21.1048 15.9603 25.1458 20.8972 25.225ZM13.5716 16.1132C13.5716 11.993 16.9956 8.58594 21.1362 8.58594C25.2768 8.58594 28.7008 11.993 28.7008 16.1132C28.7008 20.2334 25.2768 23.6404 21.1362 23.6404C16.9956 23.6404 13.5716 20.2334 13.5716 16.1132ZM22.3311 21.1841V11.1213C25.118 11.8344 26.8698 14.6076 26.1532 17.3808C25.6754 19.2825 24.2421 20.7087 22.3311 21.1841ZM16.1987 14.8454C15.4821 17.6186 17.1542 20.471 19.9412 21.1841V11.1213C18.1098 11.5967 16.6765 13.023 16.1987 14.8454Z" fill="#0079BE"/>
</svg>
