<svg width="38" height="12" viewBox="0 0 38 12" fill="none" xmlns="http://www.w3.org/2000/svg">
<g clip-path="url(#clip0_58341_566)">
<path d="M15.8877 11.2049V4.32304C15.8877 3.05676 17.0094 2.03027 18.393 2.03027L20.6133 2.03334C21.993 2.03584 23.11 3.06008 23.11 4.32269V5.78752C23.11 7.0538 21.9883 8.08029 20.6046 8.08029H17.4672" stroke="#939598" stroke-miterlimit="10" stroke-linecap="round" stroke-linejoin="round"/>
<path d="M23.7305 2.0293H24.6936C25.2615 2.0293 25.7217 2.45055 25.7217 2.97023V8.11101" stroke="#939598" stroke-miterlimit="10" stroke-linecap="round" stroke-linejoin="round"/>
<path d="M25.5152 1.23291L25.0784 0.833155C24.97 0.733983 24.97 0.573167 25.0784 0.473995L25.5149 0.0744922C25.6235 -0.0248307 25.7994 -0.0248307 25.9079 0.0744922L26.3444 0.473995C26.4528 0.573167 26.4528 0.733983 26.3444 0.833155L25.9076 1.23291C25.7993 1.33208 25.6236 1.33208 25.5152 1.23291Z" fill="#32A2BC"/>
<path d="M27.5693 2.02466H28.5245C29.0159 2.02466 29.4871 2.20331 29.8345 2.52122L32.0686 4.56576C32.358 4.83062 32.8272 4.83062 33.1166 4.56576L35.3426 2.52871C35.69 2.21079 36.1612 2.03214 36.6526 2.03214H37.4292" stroke="#939598" stroke-miterlimit="10" stroke-linecap="round" stroke-linejoin="round"/>
<path d="M27.5693 8.06616H28.5245C29.0159 8.06616 29.4871 7.88751 29.8345 7.5696L32.0686 5.52506C32.358 5.2602 32.8272 5.2602 33.1166 5.52506L35.3426 7.56211C35.69 7.88003 36.1612 8.05868 36.6526 8.05868H37.4292" stroke="#939598" stroke-miterlimit="10" stroke-linecap="round" stroke-linejoin="round"/>
<path d="M10.1929 9.37223C9.71349 9.37223 9.26261 9.20141 8.92362 8.89133L7.09096 7.21415C6.96228 7.09608 6.73803 7.09644 6.6094 7.21415L4.77005 8.89746C4.43106 9.20754 3.98018 9.37835 3.50081 9.37835H3.13965L5.46078 11.5025C6.18565 12.1658 7.36096 12.1658 8.08588 11.5025L10.4136 9.37223H10.1929Z" fill="#32A2BC"/>
<path d="M3.50071 3.43998C3.98007 3.43998 4.43095 3.61079 4.76995 3.92087L6.6093 5.60443C6.74177 5.72571 6.95806 5.72616 7.09086 5.60429L8.92351 3.927C9.26251 3.61693 9.71338 3.44611 10.1927 3.44611H10.4135L8.08582 1.31592C7.36084 0.652507 6.18554 0.652507 5.46067 1.31592L3.13965 3.43998L3.50071 3.43998Z" fill="#32A2BC"/>
<path d="M12.3391 5.20793L10.9324 3.92065C10.9014 3.932 10.8679 3.93909 10.8325 3.93909H10.1929C9.86227 3.93909 9.5386 4.06182 9.30495 4.27579L7.47235 5.95293C7.30085 6.10988 7.0755 6.1884 6.85037 6.1884C6.62501 6.1884 6.39982 6.10988 6.22838 5.95308L4.38886 4.26966C4.15521 4.05564 3.83153 3.93296 3.50089 3.93296H2.71448C2.68093 3.93296 2.64959 3.92573 2.62 3.91553L1.20776 5.20793C0.482831 5.87134 0.482831 6.94687 1.20776 7.61028L2.61994 8.90263C2.64959 8.89243 2.68093 8.8852 2.71448 8.8852H3.50089C3.83153 8.8852 4.15521 8.76251 4.38886 8.54854L6.22821 6.86528C6.56067 6.56128 7.14022 6.56118 7.47235 6.86542L9.30495 8.54241C9.5386 8.75638 9.86227 8.87911 10.1929 8.87911H10.8325C10.8679 8.87911 10.9014 8.88619 10.9324 8.89755L12.3391 7.61027C13.0639 6.94686 13.0639 5.87134 12.3391 5.20793" fill="#32A2BC"/>
</g>
<defs>
<clipPath id="clip0_58341_566">
<rect width="37" height="12" fill="white" transform="translate(0.664062)"/>
</clipPath>
</defs>
</svg>
