<svg width="177" height="54" viewBox="0 0 177 54" fill="none" xmlns="http://www.w3.org/2000/svg">
<path d="M44.5878 35.7177C43.9857 32.9712 41.5768 31.1403 39.9207 30.0941C40.9747 28.3939 42.7812 25.2552 42.0284 23.8166C41.878 23.2934 41.5768 23.1627 41.1252 23.1627C40.6735 23.1627 39.9207 23.4242 39.0174 23.6858C39.1681 23.1627 39.6198 21.0702 39.4691 18.7161C39.4691 18.7161 41.1252 18.4545 42.9317 19.7623C42.9317 13.8772 37.9637 10.3461 37.9637 10.3461C37.9637 10.3461 40.523 9.56147 42.1791 10.0846C36.9097 3.02239 28.0274 4.98412 28.0274 4.98412C28.0274 4.98412 27.8769 3.0224 29.9846 2.10693C11.1659 2.10693 10.5637 13.6157 10.5637 13.6157C10.5637 13.6157 9.05824 12.3079 8.30548 10.4769C6.34836 14.4004 7.85384 23.0319 8.00439 23.555C7.25164 23.2934 6.4989 23.0319 5.8967 23.0319C5.2945 23.0319 5.14396 23.2934 4.9934 23.8166C4.24066 25.2552 6.04726 28.3939 7.1011 30.0941C5.44506 31.1403 3.03628 32.8405 2.43408 35.7177C2.43408 35.7177 4.09012 35.3253 5.5956 35.1945C4.54176 38.5948 3.78902 43.1722 6.04726 46.3109C6.64944 45.3955 8.15494 44.2184 8.15494 44.2184C9.05824 45.5262 14.1769 49.3189 19.5967 50.7575C21.1021 51.5422 22.1561 51.9345 22.3066 51.9345L23.511 52.3269L24.7154 51.9345C24.8659 51.9345 25.9197 51.5422 27.4253 50.7575C32.845 49.3189 37.9637 45.5262 38.867 44.2184C38.867 44.2184 40.3724 45.5262 40.9747 46.3109C43.2329 43.1722 42.4801 38.5948 41.4263 35.1945C42.9317 35.3253 44.5878 35.7177 44.5878 35.7177Z" fill="#474747"/>
<path fill-rule="evenodd" clip-rule="evenodd" d="M35.1034 27.871C35.1034 24.4707 30.8882 23.2936 28.1783 24.7322C26.8232 25.5169 25.4683 26.4324 23.5112 26.4324C21.554 26.4324 20.3498 25.5169 18.8442 24.7322C16.1343 23.2936 11.9189 24.4707 11.9189 27.871C11.9189 31.2713 16.1343 33.7561 15.6827 33.7561C9.51016 44.3494 23.5112 49.3191 23.5112 49.3191C23.5112 49.3191 37.5123 44.3494 31.3398 33.7561C31.0387 33.7561 35.1034 31.1405 35.1034 27.871Z" fill="#8C8C8C"/>
<path d="M23.5111 53.373L21.855 52.7191C21.7046 52.7191 20.6506 52.3268 19.1452 51.5421C14.4781 50.2343 10.1122 47.4879 8.15507 45.6569C7.70341 46.0493 7.40231 46.4416 7.10121 46.7032L6.19793 48.2725L5.14409 46.834C2.88585 43.826 3.18695 39.7718 3.93969 36.3715C3.18695 36.5022 2.73529 36.633 2.73529 36.633L0.928711 37.0254L1.22981 35.456C1.83201 32.8404 3.78915 30.8786 5.59573 29.7016C3.33749 25.7782 3.48805 24.2088 3.78915 23.4241C4.09023 22.3779 5.14409 21.8547 6.49903 22.1163C6.19793 19.2391 5.59573 13.354 7.25177 10.2152L8.30561 7.99196L9.35945 10.2152C9.51001 10.6076 9.81109 10.8691 9.96165 11.2615C11.3166 7.59961 15.6825 1.06055 29.8341 1.06055H34.3507L30.2857 3.02227C29.8341 3.28383 29.5331 3.54539 29.232 3.80696C32.3934 3.67618 38.7166 4.06852 42.7814 9.56133L44.5879 12.0462L41.2758 10.9999C40.9748 10.8691 40.3725 10.8691 39.7704 10.8691C41.4264 12.4385 43.5342 15.4465 43.5342 19.6315V21.724L41.5769 20.2854C40.9748 19.893 40.5232 19.7622 40.0715 19.6315C40.0715 20.5469 40.0715 21.3316 39.9208 21.9855C41.2758 21.724 42.1791 22.2471 42.6309 23.2933C43.0825 24.078 43.233 25.6474 40.9748 29.5708C42.7814 30.7479 44.7384 32.5788 45.3407 35.3252L45.6417 36.8946L43.8351 36.5022C43.8351 36.5022 43.3835 36.3715 42.6309 36.2407C43.3835 39.5102 43.6846 43.6952 41.5769 46.5724L40.5232 48.011L39.6199 46.4416C39.4692 46.18 39.0176 45.7877 38.7166 45.3954C36.7594 47.2263 32.3934 50.1035 27.5759 51.2805C26.0705 52.0652 25.0165 52.4575 24.866 52.4575L23.5111 53.373ZM8.45615 42.3874L9.20891 43.5644C9.96165 44.6107 14.7792 48.2725 20.0485 49.7111L20.3494 49.8419C21.7046 50.6266 22.7583 51.019 22.9088 51.019L23.6616 51.2805L24.4144 51.019C24.4144 51.019 25.4682 50.6266 26.9738 49.8419L27.2747 49.7111C32.5439 48.4033 37.3615 44.6107 38.1143 43.5644L38.8671 42.3874L39.9208 43.3029C40.0715 43.4336 40.5232 43.6952 40.9748 44.2183C42.0286 41.4719 41.4264 37.9408 40.5232 35.3252L40.0715 33.8866L41.8781 34.1482C42.1791 34.1482 42.6309 34.279 43.0825 34.279C42.1791 32.7096 40.6736 31.6633 39.4692 31.0094L38.5659 30.4863L39.0176 29.7016C41.5769 25.5166 41.1253 24.4704 41.1253 24.3396C40.6736 24.4704 40.0715 24.6011 39.6199 24.7319L37.0605 25.3858L37.8131 23.4241C37.9638 23.0318 38.4154 21.07 38.2648 18.716V17.8005L39.3187 17.6697C39.4692 17.6697 40.3725 17.539 41.5769 17.9313C40.8241 13.7463 37.211 11.2615 37.211 11.1307L35.5549 9.95368L37.6626 9.43055C37.8131 9.43055 38.7166 9.16899 39.7704 9.03821C35.1033 4.59164 28.6296 5.89946 28.3287 6.03024L26.9738 6.2918V5.11477C26.9738 5.11477 26.9738 4.1993 27.4254 3.28383C12.3704 4.1993 11.7682 13.354 11.7682 13.7463L11.6177 16.1004L9.66055 14.4002C9.66055 14.4002 9.20891 14.0079 8.60671 13.354C8.00451 17.4082 8.90781 23.0318 9.05835 23.5549L9.66055 25.5166L7.55287 24.6011C7.10121 24.4704 6.49903 24.2088 6.04737 24.2088C6.04737 24.3396 5.59573 25.3858 8.15507 29.5708L8.60671 30.3555L7.70341 30.8786C6.49903 31.5325 4.99353 32.7096 4.09023 34.1482C4.39133 34.1482 4.84299 34.0174 5.29463 34.0174L7.10121 33.7558L6.64957 35.1944C5.74627 37.81 5.14409 41.3411 6.19793 44.0875C6.64957 43.5644 7.10121 43.1721 7.25177 43.1721L8.45615 42.3874Z" fill="#BEC0B5"/>
<path d="M57.6859 40.9486C54.976 39.6408 52.8683 37.9406 51.3629 35.5866C49.8573 33.2325 49.1045 30.6169 49.1045 27.4781C49.1045 24.3394 49.8573 21.7238 51.3629 19.3697C52.8683 17.0156 54.976 15.1847 57.6859 14.0077C60.3957 12.8307 63.5574 12.1768 67.0198 12.1768C71.6869 12.1768 75.6012 13.223 78.7627 15.3155V19.3697C75.9023 17.2772 72.1385 16.1002 67.4715 16.1002C64.9123 16.1002 62.5034 16.6233 60.5464 17.5388C58.5891 18.4542 56.9331 19.762 55.8793 21.593C54.6749 23.2931 54.2232 25.3856 54.2232 27.6089C54.2232 29.8322 54.8253 31.9247 55.8793 33.6249C56.9331 35.325 58.5891 36.7636 60.6969 37.6791C62.6539 38.5945 65.0628 39.1177 67.6221 39.1177C70.0308 39.1177 72.1385 38.8561 74.0958 38.333C76.0528 37.8099 77.7089 36.8944 79.365 35.7174V39.9024C76.2033 41.8641 72.2892 42.9103 67.0198 42.9103C63.5574 42.9103 60.3957 42.2564 57.6859 40.9486Z" fill="#484848"/>
<path d="M85.3865 41.0797C83.7306 39.7719 82.8271 38.2025 82.8271 35.9792C82.8271 33.7559 83.5799 32.0558 85.236 30.7479C86.8921 29.5709 89.1503 28.917 92.1613 28.917C95.3228 28.917 98.0326 29.4401 100.291 30.6172V29.5709C100.291 28.0015 99.6887 26.8245 98.6349 26.0398C97.581 25.2551 95.7744 24.8628 93.3657 24.8628C91.8602 24.8628 90.5052 24.9936 89.1503 25.2551C87.7954 25.5167 86.5909 25.7783 85.5372 26.3014V22.9011C86.4405 22.5087 87.7954 22.2472 89.3008 21.9856C90.8064 21.724 92.3118 21.5933 93.8174 21.5933C97.7317 21.5933 100.442 22.3779 102.399 23.8165C104.205 25.2551 105.108 27.3476 105.108 29.9633V42.5183H100.442V40.295C99.3876 41.2104 98.1833 41.9951 96.8284 42.5183C95.4733 43.0414 93.8174 43.1722 91.8602 43.1722C89.3008 42.9106 87.0426 42.2567 85.3865 41.0797ZM97.581 38.8564C98.7854 38.3333 99.8392 37.5486 100.442 36.6331V33.8867C98.3338 32.7097 95.9249 32.0558 93.3657 32.0558C91.559 32.0558 90.0536 32.3173 89.1503 32.9712C88.247 33.6251 87.7954 34.5406 87.7954 35.8484C87.7954 38.3333 89.6019 39.5103 93.3657 39.5103C94.8712 39.6411 96.2261 39.3795 97.581 38.8564Z" fill="#484848"/>
<path d="M113.69 41.0798C112.485 39.9027 111.733 38.2026 111.733 36.1101V25.386H108.27V22.1165H111.733V16.1006H116.701V22.1165H122.422V25.386H116.701V35.8485C116.701 37.1563 117.002 38.2026 117.604 38.7257C118.206 39.2488 119.26 39.5104 120.916 39.5104C121.819 39.5104 122.723 39.3796 123.776 38.9873V42.3876C122.572 42.7799 121.067 42.9107 119.26 42.9107C116.851 42.9107 115.045 42.2568 113.69 41.0798Z" fill="#484848"/>
<path d="M130.25 40.6871C128.594 39.2485 127.841 37.2868 127.841 34.8019V21.9854H132.659V34.6711C132.659 37.9407 134.466 39.51 138.229 39.51C141.541 39.51 144.101 38.2022 145.907 35.7174V21.9854H150.725V42.2564H145.907V39.3793C144.853 40.5563 143.498 41.4718 141.993 41.9949C140.487 42.518 139.133 42.9104 137.326 42.9104C134.164 42.9104 131.756 42.1257 130.25 40.6871Z" fill="#484848"/>
<path d="M160.661 42.3874C158.855 41.9951 157.349 41.6027 156.446 40.9488V37.2869C157.65 37.9408 159.156 38.464 160.812 38.8563C162.468 39.2487 164.124 39.5102 165.629 39.5102C167.436 39.5102 168.64 39.3794 169.543 38.9871C170.296 38.5947 170.748 38.0716 170.748 37.1562C170.748 36.5022 170.597 35.9791 170.146 35.7176C169.845 35.3252 169.092 35.0637 168.189 34.6713C167.285 34.4097 165.93 34.0174 164.124 33.6251C162.167 33.1019 160.661 32.7096 159.607 32.1865C158.553 31.6633 157.65 31.0094 157.048 30.3555C156.446 29.7016 156.145 28.6554 156.145 27.3476C156.145 25.3858 157.048 23.9472 158.855 22.901C160.661 21.8547 163.07 21.4624 165.93 21.4624C167.436 21.4624 168.941 21.5932 170.447 21.8547C171.952 22.1163 173.157 22.5087 174.06 22.901V26.4321C173.157 25.909 171.952 25.6474 170.597 25.2551C169.242 24.9935 167.887 24.8627 166.382 24.8627C164.726 24.8627 163.371 24.9935 162.468 25.3858C161.564 25.7782 161.113 26.4321 161.113 27.3476C161.113 28.0015 161.263 28.3938 161.715 28.7862C162.167 29.1785 162.769 29.4401 163.521 29.7016C164.425 29.9632 165.78 30.3555 167.586 30.7479C170.447 31.4018 172.554 32.3172 173.759 33.2327C174.963 34.1482 175.415 35.456 175.415 37.1562C175.415 38.8563 174.511 40.2949 173.006 41.3412C171.35 42.3874 168.941 42.9105 165.629 42.9105C164.124 42.9105 162.468 42.7797 160.661 42.3874Z" fill="#484848"/>
</svg>
