<svg width="45" height="32" viewBox="0 0 45 32" fill="none" xmlns="http://www.w3.org/2000/svg">
<rect x="0.141602" width="44" height="32" rx="2" fill="white"/>
<path fill-rule="evenodd" clip-rule="evenodd" d="M22.7529 23.2428C21.1144 24.6233 18.9889 25.4568 16.6663 25.4568C11.4841 25.4568 7.2832 21.308 7.2832 16.1902C7.2832 11.0724 11.4841 6.92358 16.6663 6.92358C18.9889 6.92358 21.1144 7.757 22.7529 9.13754C24.3915 7.757 26.517 6.92358 28.8396 6.92358C34.0217 6.92358 38.2227 11.0724 38.2227 16.1902C38.2227 21.308 34.0217 25.4568 28.8396 25.4568C26.517 25.4568 24.3915 24.6233 22.7529 23.2428Z" fill="#ED0006"/>
<path fill-rule="evenodd" clip-rule="evenodd" d="M22.7529 23.2436C24.7708 21.544 26.0503 19.0146 26.0503 16.1902C26.0503 13.3657 24.7708 10.8364 22.7529 9.13672C24.3913 7.75667 26.5165 6.92358 28.8386 6.92358C34.0207 6.92358 38.2217 11.0724 38.2217 16.1902C38.2217 21.308 34.0207 25.4568 28.8386 25.4568C26.5165 25.4568 24.3913 24.6237 22.7529 23.2436Z" fill="#F9A000"/>
<path fill-rule="evenodd" clip-rule="evenodd" d="M22.7534 23.2433C24.771 21.5436 26.0503 19.0145 26.0503 16.1902C26.0503 13.366 24.771 10.8369 22.7534 9.13721C20.7359 10.8369 19.4565 13.366 19.4565 16.1902C19.4565 19.0145 20.7359 21.5436 22.7534 23.2433Z" fill="#FF5E00"/>
</svg>
