<svg width="46" height="32" viewBox="0 0 46 32" fill="none" xmlns="http://www.w3.org/2000/svg">
<rect x="0.141602" width="44" height="32" rx="2" fill="white"/>
<path d="M43.1416 32H11.1416L28.1416 26.5L45.1416 21V30C45.1416 31.1046 44.2462 32 43.1416 32Z" fill="#FD6020"/>
<path fill-rule="evenodd" clip-rule="evenodd" d="M38.6688 12.1426C40.0135 12.1426 40.753 12.7643 40.753 13.9386C40.8202 14.8366 40.2152 15.5965 39.4084 15.7346L41.2236 18.2905H39.8118L38.2654 15.8037H38.1309V18.2905H36.988V12.1426H38.6688ZM38.1312 14.9747H38.4672C39.2063 14.9747 39.5423 14.6293 39.5423 14.0076C39.5423 13.455 39.2063 13.1096 38.4672 13.1096H38.1312V14.9747ZM33.0221 18.2905H36.2492V17.2543H34.165V15.5965H36.182V14.5603H34.165V13.1787H36.2492V12.1426H33.0221V18.2905ZM29.6592 16.2872L28.1129 12.1425H26.9027L29.3903 18.4286H29.9954L32.483 12.1425H31.2728L29.6592 16.2872ZM16.0112 15.2509C16.0112 16.9778 17.3559 18.4285 19.0367 18.4285C19.5746 18.4285 20.0452 18.2903 20.5158 18.0831V16.7015C20.1797 17.116 19.709 17.3923 19.1712 17.3923C18.0955 17.3923 17.2214 16.5634 17.2214 15.4581V15.32C17.1542 14.2147 18.0282 13.2477 19.1039 13.1786C19.6418 13.1786 20.1797 13.4549 20.5158 13.8694V12.4878C20.1124 12.2115 19.5746 12.1424 19.1039 12.1424C17.3559 12.0043 16.0112 13.4549 16.0112 15.2509ZM13.9267 14.4912C13.2544 14.2148 13.0527 14.0767 13.0527 13.7313C13.1199 13.3168 13.4561 12.9714 13.8595 13.0405C14.1956 13.0405 14.5318 13.2478 14.8007 13.5241L15.4058 12.6951C14.9352 12.2807 14.3301 12.0044 13.725 12.0044C12.7838 11.9353 11.977 12.6951 11.9097 13.6622V13.7313C11.9097 14.5602 12.2459 15.0438 13.3216 15.3892C13.5906 15.4582 13.8595 15.5964 14.1284 15.7345C14.3301 15.8727 14.4646 16.0799 14.4646 16.3562C14.4646 16.8398 14.0612 17.2543 13.6578 17.2543H13.5906C13.0527 17.2543 12.5821 16.9089 12.3804 16.4253L11.6408 17.1852C12.0442 17.945 12.851 18.3595 13.6578 18.3595C14.7335 18.4286 15.6075 17.5996 15.6748 16.4944V16.2872C15.6075 15.4582 15.2714 15.0438 13.9267 14.4912ZM10.0277 18.2904H11.17V12.1425H10.0277V18.2904ZM4.71631 12.1425H6.39712H6.73328C8.34686 12.2116 9.62428 13.5931 9.55705 15.251C9.55705 16.149 9.15365 16.9779 8.48133 17.5996C7.87624 18.0832 7.13668 18.3595 6.39712 18.2904H4.71631V12.1425ZM6.19564 17.2543C6.7335 17.3233 7.3386 17.1161 7.74199 16.7707C8.14539 16.3563 8.34708 15.8036 8.34708 15.1819C8.34708 14.6293 8.14539 14.0767 7.74199 13.6622C7.3386 13.3168 6.7335 13.1096 6.19564 13.1787H5.85948V17.2543H6.19564Z" fill="black"/>
<path fill-rule="evenodd" clip-rule="evenodd" d="M23.9452 12C22.2644 12 20.8525 13.3816 20.8525 15.1776C20.8525 16.9045 22.1972 18.3551 23.9452 18.4242C25.6933 18.4933 27.0379 17.0427 27.1052 15.2466C27.0379 13.4506 25.6933 12 23.9452 12V12Z" fill="#FD6020"/>
</svg>
