<svg width="147" height="37" viewBox="0 0 147 37" fill="none" xmlns="http://www.w3.org/2000/svg">
<path opacity="0.6" d="M41.1309 24.2769C39.8845 23.0571 38.9048 21.5918 38.254 19.9737C37.6031 18.3557 37.2953 16.6201 37.3499 14.8769C37.296 13.1322 37.6061 11.3953 38.2603 9.77688C38.9146 8.1585 39.8987 6.6941 41.1499 5.47694C42.372 4.26659 43.8252 3.31463 45.423 2.67776C47.0207 2.04089 48.7303 1.73215 50.4499 1.76994C53.0857 1.72488 55.675 2.46682 57.8869 3.90094C60.0559 5.32447 61.6895 7.42943 62.5299 9.88394H56.3299C55.7984 8.80034 54.9555 7.90008 53.9092 7.29845C52.8629 6.69683 51.6608 6.42122 50.4569 6.50694C49.4034 6.46782 48.3534 6.65198 47.3761 7.04734C46.3987 7.44269 45.516 8.04031 44.7859 8.80094C43.2773 10.464 42.4906 12.6581 42.5989 14.9009C42.4917 17.141 43.2771 19.3321 44.7829 20.9939C45.4636 21.7329 46.2931 22.3192 47.2168 22.7142C48.1405 23.1093 49.1375 23.3041 50.1419 23.2859C51.9402 23.3895 53.7146 22.835 55.1339 21.7259C56.3681 20.6439 57.1697 19.1523 57.3909 17.5259H48.8759V13.6009H62.9339V17.5279C62.4623 20.3746 61.0076 22.9659 58.8229 24.8509C56.4397 26.9727 53.3309 28.095 50.1419 27.9849C48.4676 28.006 46.8063 27.6883 45.2578 27.0511C43.7093 26.4139 42.3056 25.4703 41.1309 24.2769ZM72.7569 24.3169C73.3473 24.3228 73.9324 24.2057 74.4751 23.9731C75.0178 23.7405 75.5061 23.3975 75.9089 22.9659C76.371 22.4484 76.7256 21.8441 76.9522 21.1884C77.1788 20.5326 77.2729 19.8384 77.2289 19.1459C77.2739 18.4581 77.1821 17.7681 76.959 17.1159C76.7359 16.4637 76.3858 15.8621 75.9289 15.3459C75.5253 14.9144 75.036 14.5718 74.4924 14.3402C73.9488 14.1086 73.3628 13.9931 72.7719 14.0009C72.1869 13.9908 71.6063 14.1046 71.0684 14.3348C70.5305 14.5651 70.0474 14.9066 69.6509 15.3369C68.7426 16.3944 68.2855 17.766 68.3779 19.1569C68.2855 20.5479 68.7426 21.9195 69.6509 22.9769C70.0447 23.407 70.525 23.7487 71.0604 23.9797C71.5957 24.2107 72.1739 24.3256 72.7569 24.3169ZM66.4569 25.5589C65.615 24.7201 64.9566 23.7155 64.5235 22.6088C64.0904 21.502 63.892 20.3174 63.9409 19.1299C63.8904 17.9439 64.0912 16.7606 64.5301 15.6576C64.9691 14.5546 65.6363 13.5569 66.4879 12.7299C67.3298 11.9296 68.3215 11.3035 69.4061 10.8877C70.4907 10.4719 71.6468 10.2745 72.8079 10.3069C73.9691 10.2745 75.1252 10.4719 76.2098 10.8877C77.2944 11.3035 78.2861 11.9296 79.1279 12.7299C79.9796 13.5569 80.6468 14.5546 81.0857 15.6576C81.5247 16.7606 81.7255 17.9439 81.6749 19.1299C81.7227 20.3213 81.5193 21.5094 81.0779 22.617C80.6365 23.7246 79.967 24.727 79.1129 25.5589C78.2695 26.3681 77.2738 27.0017 76.1836 27.4229C75.0933 27.8442 73.9303 28.0447 72.7619 28.0129C71.5993 28.0482 70.4415 27.8492 69.3574 27.4276C68.2733 27.006 67.2852 26.3705 66.4519 25.5589H66.4569ZM91.5419 24.3169C92.1323 24.3228 92.7174 24.2057 93.2601 23.9731C93.8028 23.7405 94.2911 23.3975 94.6939 22.9659C95.156 22.4484 95.5106 21.8441 95.7372 21.1884C95.9638 20.5326 96.0579 19.8384 96.0139 19.1459C96.0589 18.4581 95.9671 17.7681 95.744 17.1159C95.5209 16.4637 95.1708 15.8621 94.7139 15.3459C94.311 14.9151 93.8227 14.573 93.2802 14.3414C92.7376 14.1099 92.1528 13.9939 91.5629 14.0009C90.9776 13.9913 90.3969 14.1057 89.8589 14.3367C89.321 14.5676 88.8381 14.9099 88.4419 15.3409C87.5336 16.3984 87.0765 17.77 87.1689 19.1609C87.0765 20.5519 87.5336 21.9235 88.4419 22.9809C88.8353 23.4095 89.3149 23.7501 89.8491 23.9803C90.3834 24.2105 90.9603 24.3253 91.5419 24.3169ZM85.2419 25.5589C84.4 24.7201 83.7416 23.7155 83.3085 22.6088C82.8754 21.502 82.677 20.3174 82.7259 19.1299C82.6754 17.9439 82.8762 16.7606 83.3151 15.6576C83.7541 14.5546 84.4213 13.5569 85.2729 12.7299C86.1148 11.9296 87.1065 11.3035 88.1911 10.8877C89.2757 10.4719 90.4318 10.2745 91.5929 10.3069C92.7541 10.2745 93.9102 10.4719 94.9948 10.8877C96.0794 11.3035 97.0711 11.9296 97.9129 12.7299C98.7646 13.5569 99.4318 14.5546 99.8707 15.6576C100.31 16.7606 100.51 17.9439 100.46 19.1299C100.508 20.3213 100.304 21.5094 99.8629 22.617C99.4215 23.7246 98.752 24.727 97.8979 25.5589C97.0539 26.3687 96.0574 27.0026 94.9662 27.4239C93.8751 27.8452 92.7111 28.0454 91.5419 28.0129C90.381 28.0469 89.225 27.8472 88.1428 27.4256C87.0605 27.004 86.074 26.3692 85.2419 25.5589ZM103.799 25.5119C102.226 23.7664 101.396 21.4766 101.485 19.1289C101.393 16.7928 102.218 14.5133 103.785 12.7779C104.524 11.9719 105.428 11.3342 106.436 10.9082C107.443 10.4822 108.531 10.2778 109.624 10.3089C110.703 10.2669 111.774 10.5156 112.724 11.0292C113.674 11.5427 114.468 12.3021 115.024 13.2279V10.5569H119.372V27.8879C119.461 30.1078 118.681 32.2751 117.198 33.9289C116.407 34.7318 115.453 35.3564 114.401 35.7609C113.349 36.1653 112.223 36.3402 111.098 36.2739C108.898 36.3889 106.717 35.819 104.855 34.6429C104.098 34.1147 103.47 33.4235 103.015 32.6201C102.561 31.8167 102.293 30.9217 102.231 30.0009H106.517C106.794 30.7767 107.347 31.4234 108.07 31.8179C108.956 32.2923 109.953 32.5229 110.958 32.4859C111.494 32.5002 112.027 32.4058 112.526 32.2083C113.024 32.0108 113.477 31.7144 113.858 31.3369C114.274 30.8704 114.592 30.3246 114.792 29.7323C114.992 29.14 115.071 28.5133 115.023 27.8899V24.8769C114.486 25.8432 113.697 26.6454 112.74 27.1979C111.782 27.7505 110.693 28.0325 109.588 28.0139C108.5 28.038 107.42 27.827 106.421 27.3954C105.422 26.9638 104.528 26.3217 103.8 25.5129L103.799 25.5119ZM113.66 22.8719C114.129 22.3794 114.492 21.7961 114.727 21.1579C114.962 20.5196 115.064 19.84 115.027 19.1609C115.064 18.4818 114.962 17.8022 114.727 17.164C114.492 16.5258 114.129 15.9425 113.66 15.4499C113.246 15.0197 112.749 14.678 112.199 14.4458C111.649 14.2135 111.057 14.0955 110.46 14.0989C109.867 14.0944 109.278 14.2105 108.731 14.4401C108.184 14.6698 107.689 15.0082 107.277 15.4349C106.811 15.9268 106.451 16.5088 106.219 17.1451C105.986 17.7815 105.887 18.4586 105.926 19.1349C105.889 19.8164 105.992 20.4981 106.227 21.1388C106.462 21.7795 106.824 22.3657 107.293 22.8619C107.702 23.295 108.196 23.6396 108.743 23.8747C109.29 24.1098 109.88 24.2304 110.476 24.2289C111.071 24.2306 111.66 24.1113 112.208 23.8782C112.755 23.6451 113.25 23.3031 113.661 22.8729L113.66 22.8719ZM122.791 27.7639V4.78094H127.17V27.7639H122.791ZM137.854 28.0119C136.721 28.0544 135.591 27.8594 134.537 27.4396C133.484 27.0197 132.529 26.3842 131.736 25.5739C130.934 24.7102 130.313 23.6955 129.907 22.5889C129.502 21.4823 129.322 20.3061 129.376 19.1289C129.32 17.955 129.502 16.7817 129.91 15.6796C130.318 14.5775 130.945 13.5691 131.752 12.7149C132.556 11.9124 133.518 11.2845 134.576 10.8703C135.634 10.4561 136.766 10.2647 137.902 10.3079C139.039 10.2659 140.174 10.4517 141.239 10.8544C142.303 11.2571 143.277 11.8686 144.102 12.6529C144.919 13.4702 145.556 14.4489 145.973 15.5264C146.391 16.604 146.578 17.7567 146.525 18.9109C146.528 19.4723 146.486 20.0331 146.401 20.5879H133.849C133.91 21.6119 134.353 22.5756 135.091 23.2879C135.841 23.9811 136.834 24.3495 137.855 24.3129C138.533 24.348 139.206 24.1918 139.799 23.8622C140.392 23.5326 140.881 23.0429 141.209 22.4489H145.93C145.444 24.0705 144.426 25.4817 143.042 26.4559C141.526 27.52 139.707 28.0661 137.855 28.0129L137.854 28.0119ZM141.985 17.7629C141.975 17.2452 141.859 16.7351 141.642 16.2647C141.426 15.7944 141.114 15.3739 140.727 15.0299C139.953 14.3458 138.95 13.9784 137.917 14.0009C136.902 13.9699 135.915 14.3378 135.168 15.0259C134.413 15.7484 133.945 16.7188 133.848 17.7589L141.985 17.7629Z" fill="white"/>
<path opacity="0.6" d="M67.1878 3.60904C67.0255 3.60212 66.8659 3.65237 66.7368 3.75104C66.6791 3.79816 66.6331 3.85816 66.6027 3.92624C66.5724 3.99431 66.5583 4.06857 66.5618 4.14304C66.5533 4.2852 66.599 4.42531 66.6898 4.53504C66.7832 4.63428 66.8996 4.70884 67.0288 4.75204C67.1799 4.80562 67.3338 4.85069 67.4898 4.88704C67.6565 4.92637 67.8232 4.9747 67.9898 5.03204C68.1504 5.08631 68.3048 5.15702 68.4508 5.24304C68.5956 5.3312 68.713 5.45793 68.7898 5.60904C68.88 5.78982 68.924 5.99012 68.9178 6.19204C68.9183 6.37761 68.8782 6.56105 68.8003 6.72948C68.7224 6.89792 68.6086 7.04726 68.4668 7.16704C68.1334 7.45092 67.7042 7.59685 67.2668 7.57504C66.8366 7.5951 66.4119 7.47124 66.0598 7.22304C65.9087 7.1074 65.7879 6.95681 65.7078 6.7842C65.6276 6.61159 65.5906 6.42211 65.5998 6.23204H66.5878C66.5871 6.31935 66.6052 6.40579 66.641 6.48546C66.6767 6.56513 66.7292 6.63615 66.7949 6.69367C66.8606 6.7512 66.9379 6.79387 67.0216 6.81879C67.1053 6.8437 67.1934 6.85027 67.2798 6.83804C67.4613 6.84774 67.6398 6.78884 67.7798 6.67304C67.8408 6.61802 67.8889 6.55026 67.9207 6.47456C67.9525 6.39886 67.9672 6.31708 67.9638 6.23504C67.9653 6.14783 67.9434 6.06182 67.9006 5.98587C67.8577 5.90993 67.7953 5.84681 67.7198 5.80304C67.5386 5.69005 67.3389 5.60983 67.1298 5.56604C66.8992 5.51337 66.6658 5.4497 66.4298 5.37504C66.1996 5.302 65.9942 5.16626 65.8368 4.98304C65.6693 4.77364 65.5849 4.50979 65.5998 4.24204C65.5932 4.05153 65.6309 3.86207 65.7098 3.68856C65.7887 3.51505 65.9069 3.36221 66.0548 3.24204C66.3874 2.98161 66.8018 2.8483 67.2238 2.86604C67.6325 2.84589 68.0365 2.96042 68.3738 3.19204C68.5227 3.31082 68.6426 3.4618 68.7247 3.63361C68.8068 3.80543 68.8489 3.99362 68.8478 4.18404H67.8328C67.8223 4.0242 67.7507 3.87454 67.6328 3.76604C67.5098 3.6592 67.3507 3.60308 67.1878 3.60904ZM72.8268 7.52904L72.5268 6.66604H70.7388L70.4388 7.52904H69.4598L71.0878 2.91804H72.1878L73.8088 7.52904H72.8268ZM70.9828 5.95504H72.2938L71.6348 4.03804L70.9828 5.95504ZM74.4538 7.52904V2.92904H77.2998V3.64104H75.3828V4.84704H76.8458V5.55904H75.3828V7.52904H74.4538ZM80.6858 2.91704V3.62904H78.9598V4.83504H80.4878V5.54704H78.9598V6.81904H80.6858V7.53104H78.0318V2.91804L80.6858 2.91704ZM83.6108 2.93004H85.4748C85.874 2.90748 86.268 3.02922 86.5848 3.27304C86.7143 3.37749 86.8181 3.51021 86.8883 3.66102C86.9585 3.81183 86.9933 3.97672 86.9898 4.14304C86.9886 4.39463 86.897 4.6374 86.7319 4.82717C86.5667 5.01695 86.3388 5.1411 86.0898 5.17704C86.3735 5.21046 86.6338 5.35062 86.8178 5.56904C86.9972 5.77897 87.0942 6.04692 87.0908 6.32304C87.0958 6.49031 87.0614 6.65641 86.9906 6.80802C86.9197 6.95962 86.8143 7.09252 86.6828 7.19604C86.3641 7.43294 85.9724 7.55076 85.5758 7.52904H83.6058L83.6108 2.93004ZM84.5398 3.64204V4.83404H85.3768C85.5539 4.84363 85.7284 4.78854 85.8678 4.67904C85.929 4.62437 85.9771 4.55658 86.0084 4.48074C86.0398 4.4049 86.0536 4.32296 86.0488 4.24104C86.0533 4.1587 86.0394 4.0764 86.0081 4.00012C85.9768 3.92383 85.9289 3.85548 85.8678 3.80004C85.7292 3.68863 85.5544 3.63236 85.3768 3.64204H84.5398ZM84.5398 6.81704H85.4758C85.6578 6.8265 85.8365 6.76645 85.9758 6.64904C86.0392 6.59017 86.0889 6.5181 86.1214 6.43793C86.1539 6.35775 86.1684 6.27142 86.1638 6.18504C86.168 6.09783 86.153 6.01077 86.12 5.92994C86.087 5.84911 86.0368 5.77645 85.9728 5.71704C85.8338 5.5989 85.6551 5.53781 85.4728 5.54604H84.5438L84.5398 6.81704ZM88.8218 5.69704V7.52904H87.8928V2.92904H89.5858C90.0316 2.90015 90.4715 3.04331 90.8148 3.32904C90.9536 3.45235 91.0641 3.60422 91.1387 3.77425C91.2132 3.94427 91.2501 4.12841 91.2468 4.31404C91.2463 4.60509 91.1539 4.88854 90.9828 5.12404C90.7794 5.39226 90.4836 5.57542 90.1528 5.63804L91.3258 7.52904H90.2258L89.1258 5.69704H88.8218ZM88.8218 3.64104V4.98504H89.5858C89.6824 4.99178 89.7793 4.97925 89.871 4.94818C89.9627 4.9171 90.0473 4.86811 90.1198 4.80404C90.1826 4.73921 90.2313 4.66216 90.2629 4.57769C90.2946 4.49322 90.3085 4.40313 90.3038 4.31304C90.3085 4.22295 90.2946 4.13286 90.2629 4.04839C90.2313 3.96391 90.1826 3.88686 90.1198 3.82204C90.0473 3.75797 89.9627 3.70897 89.871 3.6779C89.7793 3.64683 89.6824 3.6343 89.5858 3.64104H88.8218ZM95.2798 6.31404C95.5494 6.01298 95.6892 5.61764 95.6688 5.21404C95.6889 4.81228 95.5491 4.41892 95.2798 4.12004C95.149 3.98431 94.9909 3.8778 94.816 3.80748C94.641 3.73716 94.4532 3.70464 94.2648 3.71204C94.0757 3.70504 93.8872 3.73813 93.7118 3.80914C93.5363 3.88014 93.3779 3.98746 93.2468 4.12404C92.9777 4.42367 92.8385 4.81786 92.8598 5.22004C92.8404 5.62223 92.9814 6.01569 93.2518 6.31404C93.3829 6.45062 93.5413 6.55793 93.7168 6.62894C93.8922 6.69994 94.0807 6.73304 94.2698 6.72604C94.4577 6.73259 94.6449 6.69927 94.819 6.62826C94.9931 6.55724 95.1501 6.45015 95.2798 6.31404ZM94.2648 7.57704C93.9556 7.58439 93.648 7.52929 93.3606 7.41503C93.0731 7.30077 92.8116 7.12969 92.5918 6.91204C92.3679 6.69264 92.1919 6.42915 92.0751 6.13826C91.9582 5.84736 91.903 5.53538 91.9128 5.22204C91.903 4.90843 91.9585 4.59621 92.0759 4.30525C92.1934 4.01428 92.3701 3.75096 92.5948 3.53204C92.8146 3.31438 93.0761 3.14331 93.3636 3.02905C93.651 2.91478 93.9586 2.85968 94.2678 2.86704C94.5766 2.85969 94.8837 2.9148 95.1707 3.02907C95.4577 3.14335 95.7186 3.31443 95.9378 3.53204C96.1618 3.75144 96.3377 4.01492 96.4546 4.30582C96.5715 4.59671 96.6267 4.9087 96.6168 5.22204C96.6267 5.53538 96.5715 5.84736 96.4546 6.13826C96.3377 6.42915 96.1618 6.69264 95.9378 6.91204C95.718 7.12969 95.4566 7.30077 95.1691 7.41503C94.8816 7.52929 94.5741 7.58439 94.2648 7.57704ZM102.494 2.93204H103.489L102.16 7.52904H101.104L100.215 4.32104L99.2988 7.52904H98.2438L96.9438 2.92904H97.9318L98.8108 6.47704L99.7398 2.92604H100.788L101.66 6.44904L102.494 2.93204ZM105.557 3.61104C105.395 3.60412 105.235 3.65437 105.106 3.75304C105.048 3.80016 105.002 3.86016 104.972 3.92824C104.941 3.99631 104.927 4.07057 104.931 4.14504C104.922 4.2872 104.968 4.42731 105.059 4.53704C105.152 4.63628 105.269 4.71084 105.398 4.75404C105.549 4.80762 105.703 4.85269 105.859 4.88904C106.026 4.92837 106.192 4.9767 106.359 5.03404C106.519 5.08831 106.674 5.15901 106.82 5.24504C106.965 5.3332 107.082 5.45993 107.159 5.61104C107.249 5.79182 107.293 5.99212 107.287 6.19404C107.287 6.37961 107.247 6.56305 107.169 6.73148C107.091 6.89992 106.978 7.04926 106.836 7.16904C106.502 7.45292 106.073 7.59885 105.636 7.57704C105.205 7.59755 104.779 7.47367 104.427 7.22504C104.275 7.10941 104.154 6.95871 104.074 6.7859C103.994 6.6131 103.957 6.42336 103.966 6.23304H104.96C104.959 6.32035 104.977 6.40679 105.013 6.48646C105.049 6.56613 105.101 6.63715 105.167 6.69467C105.233 6.7522 105.31 6.79487 105.394 6.81979C105.477 6.8447 105.565 6.85127 105.652 6.83904C105.833 6.84874 106.012 6.78984 106.152 6.67404C106.213 6.61902 106.261 6.55126 106.293 6.47556C106.324 6.39986 106.339 6.31808 106.336 6.23604C106.337 6.14883 106.315 6.06282 106.273 5.98687C106.23 5.91093 106.167 5.84781 106.092 5.80404C105.911 5.69105 105.711 5.61083 105.502 5.56704C105.271 5.51437 105.038 5.4507 104.802 5.37604C104.572 5.303 104.366 5.16726 104.209 4.98404C104.039 4.77565 103.952 4.51169 103.965 4.24304C103.958 4.05252 103.996 3.86307 104.075 3.68956C104.154 3.51605 104.272 3.3632 104.42 3.24304C104.752 2.98261 105.167 2.8493 105.589 2.86704C105.998 2.84689 106.402 2.96142 106.739 3.19304C106.888 3.31182 107.008 3.4628 107.09 3.63461C107.172 3.80643 107.214 3.99462 107.213 4.18504H106.203C106.192 4.0252 106.121 3.87554 106.003 3.76704C105.88 3.66023 105.722 3.60377 105.56 3.60904L105.557 3.61104ZM108.179 7.53104V2.93104H109.108V7.53104H108.179ZM113.107 2.91904H114.036V7.53104H113.107L111.025 4.34104V7.53004H110.096V2.91804H111.025L113.107 6.10704V2.91904ZM115.446 6.90504C115.222 6.68613 115.046 6.42316 114.929 6.13278C114.812 5.84239 114.757 5.53091 114.767 5.21804C114.757 4.9049 114.813 4.59318 114.93 4.30273C115.048 4.01228 115.224 3.74947 115.449 3.53104C115.668 3.31375 115.929 3.14289 116.216 3.02864C116.503 2.91439 116.81 2.85909 117.119 2.86604C117.592 2.85798 118.056 2.99097 118.453 3.24804C118.842 3.5038 119.135 3.8816 119.286 4.32204H118.173C118.077 4.12759 117.926 3.96604 117.738 3.85808C117.551 3.75012 117.335 3.70066 117.119 3.71604C116.93 3.70904 116.741 3.74213 116.566 3.81314C116.39 3.88414 116.232 3.99146 116.101 4.12804C115.83 4.42639 115.689 4.81984 115.709 5.22204C115.689 5.62423 115.83 6.01769 116.101 6.31604C116.223 6.44881 116.372 6.55418 116.538 6.6252C116.703 6.69621 116.882 6.73127 117.063 6.72804C117.387 6.74761 117.707 6.64803 117.963 6.44804C118.184 6.25375 118.328 5.98598 118.368 5.69404H116.836V4.99404H119.36V5.69404C119.275 6.20486 119.014 6.66982 118.622 7.00804C118.194 7.38898 117.636 7.59059 117.064 7.57104C116.763 7.57471 116.465 7.51752 116.187 7.40289C115.909 7.28827 115.657 7.11858 115.446 6.90404V6.90504Z" fill="white"/>
<path d="M16.5738 37V36.9C15.3474 36.5329 14.1522 36.0684 12.9998 35.511C11.0439 34.5868 9.21763 33.4101 7.56778 32.011C5.51661 30.2818 3.83511 28.1568 2.62378 25.763C1.16307 22.7653 0.437049 19.4629 0.505778 16.129C0.505778 16.069 0.492778 10.092 0.505778 7.258C0.505778 6.879 0.505778 6.552 0.505778 6.258C0.489778 4.375 0.489778 4.339 1.74278 4.032C2.10578 3.943 3.07578 3.651 4.41778 3.246C8.09178 2.138 14.2428 0.284 16.5438 0.029V0C16.6138 0 16.6888 0 16.7678 0.009C16.8468 0.018 16.9258 0 16.9938 0V0.03C19.2788 0.286 25.3758 2.14 29.0198 3.248C30.3488 3.648 31.3098 3.948 31.6688 4.033C32.9108 4.339 32.9108 4.375 32.8978 6.263C32.8978 6.553 32.8978 6.88 32.8978 7.263C32.9108 10.109 32.8978 16.074 32.8978 16.134C32.9665 19.4659 32.2469 22.7669 30.7978 25.768C29.5999 28.1579 27.9335 30.2823 25.8978 32.015C24.2641 33.4129 22.4536 34.5896 20.5128 35.515C19.3679 36.0717 18.1801 36.5352 16.9608 36.901V37C16.9528 37 16.8858 36.983 16.7658 36.95C16.6398 36.985 16.5728 37.001 16.5728 37.001L16.5738 37ZM9.89978 15.446C9.69075 15.4453 9.48975 15.5264 9.33978 15.672L7.59978 17.353C7.52358 17.4265 7.46262 17.5143 7.42038 17.6114C7.37814 17.7085 7.35544 17.813 7.35358 17.9189C7.35173 18.0247 7.37075 18.1299 7.40956 18.2284C7.44837 18.3269 7.50621 18.4168 7.57978 18.493L12.3308 23.413L12.3408 23.423L14.0218 25.164C14.0953 25.2402 14.1831 25.3012 14.2802 25.3434C14.3773 25.3856 14.4818 25.4083 14.5876 25.4102C14.6935 25.4121 14.7987 25.393 14.8972 25.3542C14.9957 25.3154 15.0856 25.2576 15.1618 25.184L25.8998 14.821C25.976 14.7475 26.0369 14.6597 26.0792 14.5626C26.1214 14.4655 26.1441 14.361 26.146 14.2551C26.1478 14.1493 26.1288 14.0441 26.09 13.9456C26.0512 13.8471 25.9933 13.7572 25.9198 13.681L24.2388 11.941C24.1653 11.8648 24.0774 11.8038 23.9803 11.7616C23.8833 11.7194 23.7788 11.6967 23.6729 11.6948C23.5671 11.6929 23.4619 11.712 23.3633 11.7508C23.2648 11.7896 23.1749 11.8474 23.0988 11.921L14.6868 20.044L10.4868 15.693C10.4111 15.6138 10.3199 15.5511 10.2189 15.5086C10.1179 15.4661 10.0093 15.4448 9.89978 15.446Z" fill="#00AD29"/>
</svg>
