<svg width="45" height="32" viewBox="0 0 45 32" fill="none" xmlns="http://www.w3.org/2000/svg">
<rect x="0.141602" width="44" height="32" rx="2" fill="white"/>
<path fill-rule="evenodd" clip-rule="evenodd" d="M8.15149 11L3.76514 20.9872H9.01622L9.6672 19.3948H11.1552L11.8062 20.9872H17.5862V19.7718L18.1012 20.9872H21.091L21.6061 19.7461V20.9872H33.6268L35.0885 19.4361L36.4571 20.9872L42.6313 21L38.2311 16.0215L42.6313 11H36.5529L35.1301 12.5224L33.8045 11H20.7275L19.6046 13.5778L18.4553 11H13.2152V12.174L12.6322 11H8.15149ZM9.16757 12.4182H11.7272L14.6367 19.1906V12.4182H17.4406L19.6879 17.274L21.7589 12.4182H24.5489V19.5847H22.8513L22.8374 13.9691L20.3624 19.5847H18.8438L16.355 13.9691V19.5847H12.8626L12.2005 17.978H8.62346L7.96273 19.5832H6.09155L9.16757 12.4182ZM33.0049 12.4182H26.102V19.5804H32.898L35.0884 17.2068L37.1997 19.5804H39.4067L36.1989 16.0201L39.4067 12.4182H37.2955L35.1161 14.7646L33.0049 12.4182ZM10.4133 13.6306L9.23478 16.4927H11.5904L10.4133 13.6306ZM27.806 15.2104V13.9021V13.9009H32.1132L33.9926 15.9931L32.0299 18.0967H27.806V16.6685H31.5718V15.2104H27.806Z" fill="#1F72CD"/>
</svg>
