<svg width="45" height="32" viewBox="0 0 45 32" fill="none" xmlns="http://www.w3.org/2000/svg">
<rect x="0.141602" width="44" height="32" rx="2" fill="white"/>
<path fill-rule="evenodd" clip-rule="evenodd" d="M14.6526 21.3416H11.9055L9.84558 13.2559C9.7478 12.8839 9.5402 12.5551 9.23482 12.4001C8.47272 12.0106 7.63293 11.7007 6.7168 11.5444V11.2331H11.1421C11.7528 11.2331 12.2109 11.7007 12.2873 12.2438L13.3561 18.0763L16.1018 11.2331H18.7725L14.6526 21.3416ZM20.3003 21.3417H17.7059L19.8422 11.2332H22.4366L20.3003 21.3417ZM25.7922 14.0335C25.8686 13.4891 26.3266 13.1778 26.861 13.1778C27.7008 13.0996 28.6156 13.2559 29.3791 13.6441L29.8371 11.4676C29.0737 11.1563 28.2339 11 27.4718 11C24.9538 11 23.1215 12.4002 23.1215 14.3435C23.1215 15.8218 24.4194 16.5981 25.3355 17.0657C26.3266 17.532 26.7083 17.8433 26.632 18.3096C26.632 19.009 25.8686 19.3203 25.1065 19.3203C24.1903 19.3203 23.2742 19.0871 22.4357 18.6977L21.9777 20.8754C22.8938 21.2636 23.8849 21.4199 24.8011 21.4199C27.6245 21.4967 29.3791 20.0979 29.3791 17.9983C29.3791 15.3542 25.7922 15.1992 25.7922 14.0335ZM38.4578 21.3417L36.3978 11.2332H34.1852C33.7271 11.2332 33.269 11.5445 33.1163 12.0107L29.3018 21.3417H31.9725L32.5056 19.8647H35.7871L36.0924 21.3417H38.4578ZM34.5677 13.9553L35.3298 17.7651H33.1935L34.5677 13.9553Z" fill="#172B85"/>
</svg>
